<svg width="683" height="683" viewBox="0 0 683 683" fill="none" xmlns="http://www.w3.org/2000/svg">
<g clip-path="url(#clip0_52_481)">
<path d="M164.135 183.078C99.7757 183.078 47.5986 235.25 47.5986 299.609V357.25C47.5986 421.609 99.7757 473.786 164.135 473.786C266.198 473.786 365.802 505.104 449.5 563.516L481.651 585.953V70.9062L449.5 93.349C365.802 151.755 266.198 183.078 164.135 183.078Z" fill="url(#paint0_linear_52_481)"/>
<path d="M183.5 435.005H79.4736L95.8174 473.521C106.661 499.078 112.25 526.557 112.25 554.318V591.141C112.25 619.864 135.536 643.151 164.26 643.151C192.989 643.151 216.276 619.864 216.276 591.141V554.318C216.276 526.557 210.687 499.078 199.843 473.521L183.5 435.005Z" fill="#21632D"/>
<path d="M176.713 502.24H142.974C132.401 502.24 123.833 510.812 123.833 521.385V521.594C123.833 527.349 126.38 532.495 130.396 536.005L210.109 615.713C214.041 608.396 216.276 600.031 216.276 591.141V554.318C216.276 547.125 215.89 539.953 215.146 532.828L191.125 508.807C187.614 504.786 182.468 502.24 176.713 502.24Z" fill="#297A38"/>
<path d="M176.713 540.739H142.974C132.401 540.739 123.833 532.167 123.833 521.594V521.385C123.833 510.812 132.401 502.24 142.974 502.24H176.713C187.286 502.24 195.859 510.812 195.859 521.385V521.594C195.859 532.167 187.286 540.739 176.713 540.739Z" fill="url(#paint1_linear_52_481)"/>
<path d="M191.125 570.276C187.615 566.26 182.469 563.714 176.714 563.714H142.974C132.401 563.714 123.828 572.281 123.828 582.854V583.068C123.828 588.818 126.38 593.963 130.396 597.474L174.969 642.047C197.25 637.38 214.281 618.458 216.099 595.255L191.125 570.276Z" fill="#297A38"/>
<path d="M176.713 602.208H142.974C132.401 602.208 123.833 593.641 123.833 583.068V582.854C123.833 572.281 132.401 563.714 142.974 563.714H176.713C187.286 563.714 195.859 572.281 195.859 582.854V583.068C195.859 593.641 187.286 602.208 176.713 602.208Z" fill="url(#paint2_linear_52_481)"/>
<path d="M216.276 575.146V554.318C216.276 526.557 210.687 499.078 199.843 473.526L183.5 435.005H79.4736L81.9372 440.812L216.276 575.146Z" fill="#297A38"/>
<path d="M108.969 328.432C108.969 358.521 84.5729 382.917 54.4844 382.917C24.3906 382.917 0 358.521 0 328.432C0 298.344 24.3906 273.948 54.4844 273.948C84.5729 273.948 108.969 298.344 108.969 328.432Z" fill="url(#paint3_linear_52_481)"/>
<path d="M189.02 365.156V291.703C189.02 245.323 210.286 203.917 243.593 176.682C217.437 180.906 190.869 183.073 164.135 183.073C99.7757 183.073 47.5986 235.25 47.5986 299.609V357.25C47.5986 421.609 99.7757 473.786 164.135 473.786C190.869 473.786 217.437 475.953 243.593 480.177C210.286 452.948 189.02 411.536 189.02 365.156Z" fill="#297A38"/>
<path d="M682.667 329.271C682.667 168.776 620.297 38.6667 543.354 38.6667C466.417 38.6667 404.042 168.776 404.042 329.271C404.042 489.766 466.417 619.875 543.354 619.875C620.297 619.875 682.667 489.766 682.667 329.271Z" fill="url(#paint4_linear_52_481)"/>
<path d="M643.604 329.271C643.604 200.682 603.006 96.4427 552.927 96.4427C502.844 96.4427 462.245 200.682 462.245 329.271C462.245 457.859 502.844 562.099 552.927 562.099C603.006 562.099 643.604 457.859 643.604 329.271Z" fill="url(#paint5_linear_52_481)"/>
<path d="M636.958 416.781C636.812 417.828 636.641 418.865 636.464 419.896C635.859 423.63 635.208 427.297 634.51 430.922C634.24 432.38 633.969 433.828 633.667 435.255C631.651 445.443 629.333 455.182 626.755 464.427C626.375 465.828 625.979 467.208 625.583 468.573C625.552 468.719 625.505 468.844 625.469 468.974C625.073 470.323 624.661 471.672 624.25 473.01C623.802 474.469 623.359 475.932 622.88 477.359C622.516 478.521 622.151 479.651 621.771 480.776C621.609 481.271 621.453 481.745 621.276 482.24C620.865 483.448 620.448 484.641 620.036 485.813C619.526 487.276 619.005 488.74 618.448 490.182C617.99 491.438 617.51 492.677 617.036 493.901C616.781 494.552 616.526 495.219 616.255 495.87C616 496.521 615.745 497.156 615.474 497.807C614.953 499.094 614.427 500.349 613.885 501.609C613.568 502.354 613.25 503.083 612.917 503.833C612.568 504.641 612.219 505.438 611.854 506.214C611.443 507.135 611.026 508.042 610.599 508.932C608.469 513.458 606.245 517.75 603.943 521.771C589.406 547.219 571.849 562.094 552.927 562.094C509.979 562.094 473.995 485.401 464.635 382.443C464.51 381.047 464.38 379.646 464.271 378.234C464.047 375.677 463.844 373.089 463.667 370.479C463.635 370.083 463.62 369.688 463.589 369.286C463.427 366.781 463.271 364.25 463.141 361.708C463.047 360.073 462.969 358.438 462.891 356.802C462.87 356.453 462.854 356.12 462.839 355.766L462.604 349.859C462.604 349.682 462.604 349.505 462.583 349.349C462.521 347.396 462.474 345.458 462.427 343.5C462.411 343.151 462.411 342.818 462.396 342.484V342.339C462.365 340.958 462.328 339.578 462.318 338.193C462.297 337.224 462.281 336.255 462.281 335.271C462.266 333.266 462.25 331.266 462.25 329.266C462.25 327.26 462.266 325.26 462.281 323.26C462.281 322.307 462.297 321.354 462.318 320.396C462.349 318.807 462.38 317.219 462.411 315.63C462.411 315.297 462.427 314.964 462.427 314.63C462.458 313.5 462.49 312.391 462.521 311.276C462.552 309.849 462.599 308.432 462.667 307.021C462.714 305.432 462.776 303.844 462.854 302.25C462.87 302.047 462.87 301.823 462.885 301.615C462.901 301.063 462.938 300.505 462.964 299.964C463.281 293.276 463.729 286.667 464.286 280.167C464.443 278.229 464.62 276.307 464.792 274.385C467.031 274.099 469.307 273.943 471.625 273.943C487.594 273.943 501.938 280.802 511.901 291.734L636.958 416.781Z" fill="url(#paint6_linear_52_481)"/>
<path d="M234.427 354.797H232.266C223.161 354.797 215.781 347.411 215.781 338.307V297.719C215.781 288.615 223.161 281.234 232.266 281.234H234.427C243.536 281.234 250.917 288.615 250.917 297.719V338.307C250.917 347.411 243.536 354.797 234.427 354.797Z" fill="url(#paint7_linear_52_481)"/>
<path d="M283.266 354.797H281.104C272 354.797 264.62 347.411 264.62 338.307V297.719C264.62 288.615 272 281.234 281.104 281.234H283.266C292.375 281.234 299.756 288.615 299.756 297.719V338.307C299.756 347.411 292.375 354.797 283.266 354.797Z" fill="url(#paint8_linear_52_481)"/>
<path d="M189.021 365.156V300.13H158.782C151.058 300.13 144.792 306.396 144.792 314.12V321.906C144.792 325.995 146.558 329.656 149.349 332.214L189.193 372.057C189.089 369.771 189.021 367.474 189.021 365.156Z" fill="#297A38"/>
<path d="M189.021 300.13H158.782C151.058 300.13 144.792 306.396 144.792 314.12V321.906C144.792 329.635 151.058 335.896 158.782 335.896H189.021V300.13Z" fill="url(#paint9_linear_52_481)"/>
<path d="M471.631 273.948C469.313 273.948 467.032 274.109 464.787 274.391C463.131 291.99 462.245 310.365 462.245 329.271C462.245 347.568 463.073 365.37 464.625 382.453C466.922 382.745 469.256 382.911 471.631 382.911C501.719 382.911 526.115 358.521 526.115 328.432C526.115 298.338 501.719 273.948 471.631 273.948Z" fill="#297A38"/>
</g>
<defs>
<linearGradient id="paint0_linear_52_481" x1="264.626" y1="240.267" x2="264.626" y2="555.803" gradientUnits="userSpaceOnUse">
<stop stop-color="#FFFCF8"/>
<stop offset="0.1875" stop-color="#FAF8F6"/>
<stop offset="0.4041" stop-color="#ECEEF2"/>
<stop offset="0.6353" stop-color="#D5DCEA"/>
<stop offset="0.875" stop-color="#B5C4DF"/>
<stop offset="1" stop-color="#A1B5D8"/>
</linearGradient>
<linearGradient id="paint1_linear_52_481" x1="148.364" y1="518.021" x2="198.312" y2="533.109" gradientUnits="userSpaceOnUse">
<stop stop-color="#FFD00D"/>
<stop offset="0.2378" stop-color="#FFCB0E"/>
<stop offset="0.5353" stop-color="#FFBB11"/>
<stop offset="0.8632" stop-color="#FFA215"/>
<stop offset="1" stop-color="#FF9517"/>
</linearGradient>
<linearGradient id="paint2_linear_52_481" x1="148.364" y1="579.493" x2="198.312" y2="594.582" gradientUnits="userSpaceOnUse">
<stop stop-color="#FFD00D"/>
<stop offset="0.2378" stop-color="#FFCB0E"/>
<stop offset="0.5353" stop-color="#FFBB11"/>
<stop offset="0.8632" stop-color="#FFA215"/>
<stop offset="1" stop-color="#FF9517"/>
</linearGradient>
<linearGradient id="paint3_linear_52_481" x1="44.1818" y1="300.618" x2="76.7452" y2="388.539" gradientUnits="userSpaceOnUse">
<stop stop-color="#FFD00D"/>
<stop offset="0.2378" stop-color="#FFCB0E"/>
<stop offset="0.5353" stop-color="#FFBB11"/>
<stop offset="0.8632" stop-color="#FFA215"/>
<stop offset="1" stop-color="#FF9517"/>
</linearGradient>
<linearGradient id="paint4_linear_52_481" x1="444.192" y1="244.468" x2="903.947" y2="637.637" gradientUnits="userSpaceOnUse">
<stop stop-color="#FFD00D"/>
<stop offset="0.2378" stop-color="#FFCB0E"/>
<stop offset="0.5353" stop-color="#FFBB11"/>
<stop offset="0.8632" stop-color="#FFA215"/>
<stop offset="1" stop-color="#FF9517"/>
</linearGradient>
<linearGradient id="paint5_linear_52_481" x1="593.52" y1="329.269" x2="340.244" y2="329.269" gradientUnits="userSpaceOnUse">
<stop stop-color="#FFFCF8"/>
<stop offset="0.1875" stop-color="#FAF8F6"/>
<stop offset="0.4041" stop-color="#ECEEF2"/>
<stop offset="0.6353" stop-color="#D5DCEA"/>
<stop offset="0.875" stop-color="#B5C4DF"/>
<stop offset="1" stop-color="#A1B5D8"/>
</linearGradient>
<linearGradient id="paint6_linear_52_481" x1="553.325" y1="445.714" x2="219.003" y2="205.483" gradientUnits="userSpaceOnUse">
<stop stop-color="#A1B5D8" stop-opacity="0"/>
<stop offset="0.6699" stop-color="#8190A4" stop-opacity="0.670588"/>
<stop offset="1" stop-color="#748290"/>
</linearGradient>
<linearGradient id="paint7_linear_52_481" x1="241.213" y1="318.014" x2="192.144" y2="318.014" gradientUnits="userSpaceOnUse">
<stop stop-color="#FFFCF8"/>
<stop offset="0.1875" stop-color="#FAF8F6"/>
<stop offset="0.4041" stop-color="#ECEEF2"/>
<stop offset="0.6353" stop-color="#D5DCEA"/>
<stop offset="0.875" stop-color="#B5C4DF"/>
<stop offset="1" stop-color="#A1B5D8"/>
</linearGradient>
<linearGradient id="paint8_linear_52_481" x1="290.052" y1="318.014" x2="240.982" y2="318.014" gradientUnits="userSpaceOnUse">
<stop stop-color="#FFFCF8"/>
<stop offset="0.1875" stop-color="#FAF8F6"/>
<stop offset="0.4041" stop-color="#ECEEF2"/>
<stop offset="0.6353" stop-color="#D5DCEA"/>
<stop offset="0.875" stop-color="#B5C4DF"/>
<stop offset="1" stop-color="#A1B5D8"/>
</linearGradient>
<linearGradient id="paint9_linear_52_481" x1="166.907" y1="310.901" x2="166.907" y2="357.382" gradientUnits="userSpaceOnUse">
<stop stop-color="#FFD00D"/>
<stop offset="0.2378" stop-color="#FFCB0E"/>
<stop offset="0.5353" stop-color="#FFBB11"/>
<stop offset="0.8632" stop-color="#FFA215"/>
<stop offset="1" stop-color="#FF9517"/>
</linearGradient>
<clipPath id="clip0_52_481">
<rect width="682.667" height="682.667" fill="white"/>
</clipPath>
</defs>
</svg>
